# xmcd
#
# Track frame offsets: 
#        182
#        10472
#        20755
#        33587
#        44705
#        57380
#        71070
#        84000
#        97827
#        111645
#        123117
#        134957
#
# Disc length: 1959 seconds
#
# Revision: 2
# Processed by: cddbd v1.5.2PL0 Copyright (c) Steve Scherf et al.
# Submitted via: ExactAudioCopyFreeDBPlugin 1.0
#
DISCID=ae07a50c
DTITLE=Ray Charles - Honey Honey
DYEAR=1995
DGENRE=Blues
TTITLE0=Sittin'on Top Of The World
TTITLE1=Ain't That Fine
TTITLE2=Don't Put All Your Dreams In One Basket
TTITLE3=Let's Have A Ball
TTITLE4=You'll Always Miss The Water (When The Well Goes Dry)
TTITLE5=This Love Of Mine
TTITLE6=Baby, Won't You Please Come Home
TTITLE7=Misery In My Heart
TTITLE8=Baby Let Me Hold Your Hand
TTITLE9=If I Give You My Love
TTITLE10=Can't You See Darling
TTITLE11=Honey Honey
EXTD=
EXTT0=
EXTT1=
EXTT2=
EXTT3=
EXTT4=
EXTT5=
EXTT6=
EXTT7=
EXTT8=
EXTT9=
EXTT10=
EXTT11=
PLAYORDER=
